<svg width="83" height="20" xmlns="http://www.w3.org/2000/svg" xmlns:xlink="http://www.w3.org/1999/xlink">
 <defs>
  <path id="a" d="m8.21,9.125l-0.423,0.449a0.288,0.288 0 0 1 -0.424,0l-0.424,-0.449l-0.851,-0.9a0.33,0.33 0 0 1 0,-0.45l0.424,-0.448a0.288,0.288 0 0 1 0.424,0l0.637,0.675l1.489,-1.576a0.288,0.288 0 0 1 0.424,0l0.424,0.449c0.12,0.124 0.12,0.325 0.003,0.449l-1.703,1.801zm-0.31,-7.792c3.737,0 6.767,2.985 6.767,6.667s-3.03,6.667 -6.767,6.667c-3.155,0 -5.802,-2.124 -6.554,-5a0.238,0.238 0 0 1 -0.013,-0.08a0.32,0.32 0 0 1 0.323,-0.318l2.729,0a0.323,0.323 0 0 1 0.297,0.197a3.552,3.552 0 0 0 3.218,2.025c1.955,0 3.543,-1.562 3.543,-3.491c0,-1.926 -1.585,-3.49 -3.543,-3.49c-1.426,0 -2.654,0.83 -3.218,2.024l-0.006,0.012a0.323,0.323 0 0 1 -0.291,0.185l-2.729,0a0.32,0.32 0 0 1 -0.323,-0.317c0,-0.028 0.007,-0.056 0.013,-0.08c0.752,-2.877 3.402,-5 6.554,-5l0,-0.001z"/>
 </defs>
 <g>
  <title>background</title>
  <rect fill="none" id="canvas_background" height="402" width="582" y="-1" x="-1"/>
 </g>
 <g>
  <title>Layer 1</title>
  <g id="svg_1" fill-rule="evenodd" fill="none">
   <path id="svg_2" fill="#4040ff" d="m4,0l76,0a3,3 0 0 1 3,3l0,14a3,3 0 0 1 -3,3l-76,0a4,4 0 0 1 -4,-4l0,-12a4,4 0 0 1 4,-4z"/>
   <g id="svg_3">
    <path id="svg_4" d="m5,2l16,0l0,16l-16,0l0,-16z"/>
    <mask transform="translate(5,2) " id="b">
     <use id="svg_5" xlink:href="#a"/>
    </mask>
    <use id="svg_6" x="5" y="2" xlink:href="#a" fill="#51BD88"/>
    <g id="svg_7" fill="#FFF" mask="url(#b)">
     <path id="svg_8" d="m5,2l16,0l0,16l-16,0l0,-16z"/>
    </g>
   </g>
   <text stroke="null" transform="matrix(1.0337841408822133,0,0,0.9618554241523896,9.724623378849339,5.924915567813491) " xml:space="preserve" text-anchor="start" font-family="Helvetica, Arial, sans-serif" font-size="12" id="svg_11" y="8.739586" x="27.750034" stroke-opacity="null" stroke-width="0" fill="#ffffff">N/A</text>
  </g>
 </g>
</svg>