<svg width="103" height="20" xmlns="http://www.w3.org/2000/svg" xmlns:xlink="http://www.w3.org/1999/xlink"><defs><path d="M6.288 7.988c0-.875.72-1.583 1.609-1.583s1.608.708 1.608 1.583c0 .874-.72 1.582-1.608 1.582-.89 0-1.61-.708-1.61-1.582zM7.9 1.336c3.73 0 6.76 2.978 6.76 6.652 0 3.673-3.026 6.651-6.76 6.651-3.158 0-5.806-2.128-6.551-5.004a.23.23 0 0 1-.01-.065.32.32 0 0 1 .323-.317h2.726c.128 0 .241.077.291.185a3.54 3.54 0 0 0 3.218 2.032c1.953 0 3.54-1.558 3.54-3.482 0-1.922-1.584-3.483-3.54-3.483a3.547 3.547 0 0 0-3.218 2.032.323.323 0 0 1-.29.185H1.661a.32.32 0 0 1-.322-.317.23.23 0 0 1 .009-.065c.745-2.876 3.393-5.004 6.55-5.004z" id="a"/></defs><g fill="none" fill-rule="evenodd"><path d="M4 0h96a3 3 0 0 1 3 3v14a3 3 0 0 1-3 3H4a4 4 0 0 1-4-4V4a4 4 0 0 1 4-4z" fill="#555"/><g transform="translate(5 2)"><path d="M0 0h16v16H0z"/><mask id="b" fill="#fff"><use xlink:href="#a"/></mask><use fill="#343434" xlink:href="#a"/><g mask="url(#b)" fill="#FFF"><path d="M0 0h16v16H0z"/></g></g><path d="M33.982 15h-2.05l-3.993-6.549V15h-2.05V5.047h2.05l4 6.562V5.047h2.043V15zm10.148-4.751c0 .98-.173 1.839-.52 2.577-.346.738-.842 1.308-1.486 1.71-.645.4-1.385.6-2.219.6-.825 0-1.56-.198-2.208-.594-.647-.396-1.148-.963-1.504-1.699-.355-.736-.535-1.582-.54-2.54v-.491c0-.98.177-1.843.53-2.588.353-.745.852-1.317 1.497-1.716.645-.398 1.382-.598 2.212-.598.829 0 1.566.2 2.211.598.645.4 1.144.971 1.497 1.716.353.745.53 1.605.53 2.58v.445zm-2.078-.451c0-1.044-.187-1.837-.56-2.38-.375-.541-.908-.813-1.6-.813-.689 0-1.22.268-1.593.804-.374.535-.563 1.32-.568 2.355v.485c0 1.016.187 1.805.561 2.365.374.56.911.841 1.613.841.688 0 1.217-.27 1.586-.81.37-.54.556-1.327.56-2.362v-.485zM49.468 15V5.047h3.486c1.208 0 2.124.231 2.748.694.624.462.937 1.14.937 2.033 0 .488-.126.918-.376 1.289-.251.371-.6.644-1.046.817.51.127.912.385 1.206.772.294.388.441.862.441 1.422 0 .957-.305 1.682-.916 2.174-.61.492-1.48.743-2.611.752h-3.87zm2.05-4.334v2.687h1.757c.483 0 .86-.116 1.132-.346.27-.23.406-.548.406-.953 0-.912-.471-1.374-1.415-1.388h-1.88zm0-1.45h1.518c1.035-.017 1.552-.43 1.552-1.237 0-.45-.131-.775-.393-.974-.262-.198-.676-.297-1.241-.297h-1.436v2.509zm14.598-4.17v6.557c0 1.089-.34 1.95-1.022 2.584-.681.633-1.612.95-2.792.95-1.162 0-2.085-.308-2.769-.923-.683-.615-1.032-1.46-1.046-2.536V5.047h2.051v6.57c0 .65.156 1.126.468 1.425.312.298.744.447 1.296.447 1.153 0 1.738-.606 1.757-1.818V5.047h2.057zM70.16 15h-2.05V5.047h2.05V15zm4.132-1.647h4.354V15H72.24V5.047h2.05v8.306zM80 15V5.047h3.063c.875 0 1.658.197 2.348.591.69.394 1.23.955 1.617 1.682.388.727.581 1.553.581 2.478v.458c0 .925-.19 1.748-.57 2.468a4.088 4.088 0 0 1-1.61 1.674c-.693.397-1.475.597-2.345.602h-3.083zm2.052-8.292v6.645h.99c.803 0 1.416-.263 1.84-.787.424-.524.64-1.273.65-2.249v-.526c0-1.012-.21-1.778-.63-2.3-.42-.522-1.032-.783-1.839-.783h-1.011zm12.39 5.68c0-.387-.137-.684-.41-.891-.274-.208-.767-.427-1.477-.657-.711-.23-1.274-.457-1.689-.68-1.13-.61-1.695-1.433-1.695-2.468 0-.537.151-1.017.454-1.439.303-.421.739-.75 1.306-.987.567-.237 1.204-.356 1.91-.356.712 0 1.345.129 1.901.386.556.258.988.621 1.295 1.09.308.47.462 1.003.462 1.6h-2.05c0-.455-.144-.81-.432-1.063-.287-.253-.69-.38-1.21-.38-.5 0-.89.107-1.169.319a1.003 1.003 0 0 0-.416.837c0 .324.162.595.488.814.326.218.806.424 1.44.615 1.166.35 2.016.786 2.549 1.306.533.52.8 1.166.8 1.941 0 .861-.326 1.537-.978 2.027-.651.49-1.529.735-2.632.735-.765 0-1.462-.14-2.091-.42-.63-.281-1.109-.665-1.44-1.153-.33-.487-.495-1.052-.495-1.695h2.058c0 1.098.656 1.648 1.968 1.648.488 0 .869-.1 1.142-.298.274-.198.41-.475.41-.83z" fill="#FFF"/></g></svg>